<svg xmlns="http://www.w3.org/2000/svg" viewBox="0 0 64 44" width="64" height="44">
  <!-- colas -->
  <path d="M29 25 L16 41 L25 39 L28.5 42.5 L33 28 Z" fill="#F58AB0" stroke="#D6457F" stroke-width="1.4" stroke-linejoin="round"/>
  <path d="M35 25 L48 41 L39 39 L35.5 42.5 L31 28 Z" fill="#F58AB0" stroke="#D6457F" stroke-width="1.4" stroke-linejoin="round"/>
  <!-- lazadas -->
  <path d="M30 21 C23 5 5 2 3 14 C1 27 19 33 30 21 Z" fill="#FFB8D2" stroke="#D6457F" stroke-width="1.6" stroke-linejoin="round"/>
  <path d="M34 21 C41 5 59 2 61 14 C63 27 45 33 34 21 Z" fill="#FFB8D2" stroke="#D6457F" stroke-width="1.6" stroke-linejoin="round"/>
  <!-- pliegues -->
  <path d="M27 20 C21 12 12 10 8 14" fill="none" stroke="#F58AB0" stroke-width="1.5" stroke-linecap="round"/>
  <path d="M37 20 C43 12 52 10 56 14" fill="none" stroke="#F58AB0" stroke-width="1.5" stroke-linecap="round"/>
  <!-- nudo -->
  <rect x="26.5" y="14.5" width="11" height="13" rx="5" fill="#F06A9C" stroke="#D6457F" stroke-width="1.6"/>
  <ellipse cx="30.2" cy="19.2" rx="1.5" ry="2.4" fill="#fff" opacity=".6"/>
</svg>
